<mxfile host="app.diagrams.net" modified="2023-06-09T07:16:02.572Z" agent="Mozilla/5.0 (Macintosh; Intel Mac OS X 10_15_7) AppleWebKit/537.36 (KHTML, like Gecko) Chrome/114.0.0.0 Safari/537.36" etag="m3sTjfi-EIYanGq4Hnhu" version="21.3.7" type="device">
  <diagram name="Page-1" id="y6cdyC9lNrnW4KYROuGj">
    <mxGraphModel dx="1366" dy="765" grid="1" gridSize="10" guides="1" tooltips="1" connect="1" arrows="1" fold="1" page="1" pageScale="1" pageWidth="827" pageHeight="1169" math="0" shadow="0">
      <root>
        <mxCell id="0" />
        <mxCell id="1" parent="0" />
        <mxCell id="Bpp8eOlQhaPfXwowe9_X-43" value="&lt;font style=&quot;font-size: 18px;&quot;&gt;Ordering module&lt;/font&gt;" style="shape=module;align=left;spacingLeft=20;align=center;verticalAlign=top;whiteSpace=wrap;html=1;" vertex="1" parent="1">
          <mxGeometry x="330" y="460" width="260" height="150" as="geometry" />
        </mxCell>
        <mxCell id="Bpp8eOlQhaPfXwowe9_X-22" value="&lt;font style=&quot;font-size: 23px;&quot;&gt;FrontEnd&lt;/font&gt;" style="shape=umlFrame;whiteSpace=wrap;html=1;pointerEvents=0;width=210;height=40;" vertex="1" parent="1">
          <mxGeometry y="80" width="1030" height="590" as="geometry" />
        </mxCell>
        <mxCell id="Bpp8eOlQhaPfXwowe9_X-30" value="" style="group" vertex="1" connectable="0" parent="1">
          <mxGeometry x="50" y="160" width="260" height="450" as="geometry" />
        </mxCell>
        <mxCell id="Bpp8eOlQhaPfXwowe9_X-21" value="&lt;font style=&quot;font-size: 18px;&quot;&gt;User module&lt;/font&gt;" style="shape=module;align=left;spacingLeft=20;align=center;verticalAlign=top;whiteSpace=wrap;html=1;" vertex="1" parent="Bpp8eOlQhaPfXwowe9_X-30">
          <mxGeometry width="260" height="450" as="geometry" />
        </mxCell>
        <mxCell id="Bpp8eOlQhaPfXwowe9_X-23" value="&lt;p style=&quot;margin:0px;margin-top:6px;text-align:center;&quot;&gt;&lt;b&gt;User Info Component&lt;/b&gt;&lt;/p&gt;&lt;hr&gt;&lt;p style=&quot;margin:0px;margin-left:8px;&quot;&gt;Get user&#39;s info who login from firebase service&lt;/p&gt;" style="align=left;overflow=fill;html=1;dropTarget=0;whiteSpace=wrap;" vertex="1" parent="Bpp8eOlQhaPfXwowe9_X-30">
          <mxGeometry x="45" y="170" width="180" height="90" as="geometry" />
        </mxCell>
        <mxCell id="Bpp8eOlQhaPfXwowe9_X-24" value="" style="shape=component;jettyWidth=8;jettyHeight=4;" vertex="1" parent="Bpp8eOlQhaPfXwowe9_X-23">
          <mxGeometry x="1" width="20" height="20" relative="1" as="geometry">
            <mxPoint x="-24" y="4" as="offset" />
          </mxGeometry>
        </mxCell>
        <mxCell id="Bpp8eOlQhaPfXwowe9_X-26" value="&lt;p style=&quot;margin:0px;margin-top:6px;text-align:center;&quot;&gt;&lt;b&gt;User login Component&lt;/b&gt;&lt;/p&gt;&lt;hr&gt;&lt;p style=&quot;margin:0px;margin-left:8px;&quot;&gt;let user log in by username and password at firebase service&lt;/p&gt;" style="align=left;overflow=fill;html=1;dropTarget=0;whiteSpace=wrap;" vertex="1" parent="Bpp8eOlQhaPfXwowe9_X-30">
          <mxGeometry x="45" y="50" width="180" height="90" as="geometry" />
        </mxCell>
        <mxCell id="Bpp8eOlQhaPfXwowe9_X-27" value="" style="shape=component;jettyWidth=8;jettyHeight=4;" vertex="1" parent="Bpp8eOlQhaPfXwowe9_X-26">
          <mxGeometry x="1" width="20" height="20" relative="1" as="geometry">
            <mxPoint x="-24" y="4" as="offset" />
          </mxGeometry>
        </mxCell>
        <mxCell id="Bpp8eOlQhaPfXwowe9_X-28" value="&lt;p style=&quot;margin:0px;margin-top:6px;text-align:center;&quot;&gt;&lt;b&gt;User Register Component&lt;/b&gt;&lt;/p&gt;&lt;hr&gt;&lt;p style=&quot;margin:0px;margin-left:8px;&quot;&gt;Let user register by email, password, name, tel at firebase service&lt;/p&gt;" style="align=left;overflow=fill;html=1;dropTarget=0;whiteSpace=wrap;" vertex="1" parent="Bpp8eOlQhaPfXwowe9_X-30">
          <mxGeometry x="45" y="315" width="185" height="90" as="geometry" />
        </mxCell>
        <mxCell id="Bpp8eOlQhaPfXwowe9_X-29" value="" style="shape=component;jettyWidth=8;jettyHeight=4;" vertex="1" parent="Bpp8eOlQhaPfXwowe9_X-28">
          <mxGeometry x="1" width="20" height="20" relative="1" as="geometry">
            <mxPoint x="-24" y="4" as="offset" />
          </mxGeometry>
        </mxCell>
        <mxCell id="Bpp8eOlQhaPfXwowe9_X-42" value="" style="group" vertex="1" connectable="0" parent="1">
          <mxGeometry x="330" y="460" width="260" height="450" as="geometry" />
        </mxCell>
        <mxCell id="Bpp8eOlQhaPfXwowe9_X-44" value="&lt;p style=&quot;margin:0px;margin-top:6px;text-align:center;&quot;&gt;&lt;b&gt;Ordering Component&lt;/b&gt;&lt;/p&gt;&lt;hr&gt;&lt;p style=&quot;margin:0px;margin-left:8px;&quot;&gt;Let user order ticket. create an order by user email, movie id, theater id, sit id, time.&amp;nbsp;&lt;/p&gt;" style="align=left;overflow=fill;html=1;dropTarget=0;whiteSpace=wrap;" vertex="1" parent="Bpp8eOlQhaPfXwowe9_X-42">
          <mxGeometry x="45" y="40" width="180" height="90" as="geometry" />
        </mxCell>
        <mxCell id="Bpp8eOlQhaPfXwowe9_X-45" value="" style="shape=component;jettyWidth=8;jettyHeight=4;" vertex="1" parent="Bpp8eOlQhaPfXwowe9_X-44">
          <mxGeometry x="1" width="20" height="20" relative="1" as="geometry">
            <mxPoint x="-24" y="4" as="offset" />
          </mxGeometry>
        </mxCell>
        <mxCell id="Bpp8eOlQhaPfXwowe9_X-32" value="&lt;font style=&quot;font-size: 18px;&quot;&gt;Movie module&lt;/font&gt;" style="shape=module;align=left;spacingLeft=20;align=center;verticalAlign=top;whiteSpace=wrap;html=1;container=0;" vertex="1" parent="1">
          <mxGeometry x="330" y="160" width="260" height="270" as="geometry" />
        </mxCell>
        <mxCell id="Bpp8eOlQhaPfXwowe9_X-33" value="&lt;p style=&quot;margin:0px;margin-top:6px;text-align:center;&quot;&gt;&lt;b&gt;Movie Info Component&lt;/b&gt;&lt;/p&gt;&lt;hr&gt;&lt;p style=&quot;margin:0px;margin-left:8px;&quot;&gt;Get all movies info from server&lt;/p&gt;&lt;p style=&quot;margin:0px;margin-left:8px;&quot;&gt;Get movie post from firebase storage by movie id.&lt;/p&gt;&lt;p style=&quot;margin:0px;margin-left:8px;&quot;&gt;Get projection plan from server by movie id&lt;/p&gt;" style="align=left;overflow=fill;html=1;dropTarget=0;whiteSpace=wrap;container=0;" vertex="1" parent="1">
          <mxGeometry x="375" y="200" width="180" height="120" as="geometry" />
        </mxCell>
        <mxCell id="Bpp8eOlQhaPfXwowe9_X-46" value="&lt;p style=&quot;margin:0px;margin-top:6px;text-align:center;&quot;&gt;&lt;b&gt;Projection Plan&lt;/b&gt;&lt;/p&gt;&lt;hr&gt;&lt;p style=&quot;margin:0px;margin-left:8px;&quot;&gt;&lt;br&gt;&lt;/p&gt;" style="align=left;overflow=fill;html=1;dropTarget=0;whiteSpace=wrap;container=0;" vertex="1" parent="1">
          <mxGeometry x="375" y="340" width="180" height="70" as="geometry" />
        </mxCell>
        <mxCell id="Bpp8eOlQhaPfXwowe9_X-34" value="" style="shape=component;jettyWidth=8;jettyHeight=4;container=0;" vertex="1" parent="1">
          <mxGeometry x="531" y="204" width="20" height="20" as="geometry">
            <mxPoint x="-24" y="4" as="offset" />
          </mxGeometry>
        </mxCell>
        <mxCell id="Bpp8eOlQhaPfXwowe9_X-47" value="" style="shape=component;jettyWidth=8;jettyHeight=4;container=0;" vertex="1" parent="1">
          <mxGeometry x="531" y="324" width="20" height="20" as="geometry">
            <mxPoint x="-24" y="4" as="offset" />
          </mxGeometry>
        </mxCell>
        <mxCell id="Bpp8eOlQhaPfXwowe9_X-48" value="Firebase Service" style="shape=folder;fontStyle=1;spacingTop=10;tabWidth=40;tabHeight=14;tabPosition=left;html=1;whiteSpace=wrap;" vertex="1" parent="1">
          <mxGeometry x="640" y="160" width="160" height="90" as="geometry" />
        </mxCell>
        <mxCell id="Bpp8eOlQhaPfXwowe9_X-49" value="Http Service" style="shape=folder;fontStyle=1;spacingTop=10;tabWidth=40;tabHeight=14;tabPosition=left;html=1;whiteSpace=wrap;" vertex="1" parent="1">
          <mxGeometry x="640" y="260" width="160" height="90" as="geometry" />
        </mxCell>
      </root>
    </mxGraphModel>
  </diagram>
</mxfile>
